<?xml version="1.0" encoding="iso-8859-1"?>
<!-- Generator: Adobe Illustrator 21.1.0, SVG Export Plug-In . SVG Version: 6.00 Build 0)  -->
<svg version="1.1" id="Layer_1" xmlns="http://www.w3.org/2000/svg" xmlns:xlink="http://www.w3.org/1999/xlink" x="0px" y="0px"
	 viewBox="0 0 24 24" enable-background="new 0 0 24 24" xml:space="preserve">
<g>
	<path fill="#303C42" d="M12,0C5.3833008,0,0,5.3833008,0,12s5.3833008,12,12,12s12-5.3833008,12-12S18.6166992,0,12,0z"/>
	<path fill="#FFCB29" d="M23,12c0,0.8047485-0.0923462,1.5874023-0.2572021,2.3434448
		c-0.6693115-3.7107544-2.617981-7.4020996-5.1836548-9.675354c0.6341553-0.5083008,1.1746826-0.8915405,1.4888306-1.1030884
		C21.4607544,5.5844727,23,8.6148682,23,12z"/>
	<path fill="#FFCB29" d="M19.383667,20.1298218c-0.7828369,0.7116089-1.6662598,1.3101196-2.6293945,1.7744141
		c-0.163208-1.9990234-0.9146729-7.4832153-4.2129517-10.1026001c0.1831055-1.2676392,0.7755127-2.4738159,1.5476074-3.5598145
		C17.5062256,11.7341309,19.4853516,17.4827271,19.383667,20.1298218z"/>
	<path fill="#FFCB29" d="M3.0357666,18.3525391c-0.585022-0.8230591-1.0557251-1.7293701-1.3984375-2.697876
		c2.0050049,0.9290771,5.0744629,1.5435791,8.1619873,1.5435791c1.6567993,0,3.3057861-0.1870117,4.7962036-0.5828247
		c0.3623657,0.9744263,0.6194458,1.9613647,0.7969971,2.8526001C11.7260742,20.7548218,6.7415771,20.3192139,3.0357666,18.3525391z"
		/>
	<path fill="#2B66B1" d="M1.0423584,11.1638794c1.3505859,0.6393433,4.5388184,1.9699097,7.7012939,1.9699097
		c1.0836182,0,2.1595459-0.1693115,3.1593018-0.5643921c1.0053101,0.7923584,1.7531738,1.9078369,2.307251,3.1187744
		C9.465271,16.9049683,3.4789429,15.7355347,1.2509155,14.3189697C1.0895996,13.5705566,1,12.7958984,1,12
		C1,11.7177734,1.0213623,11.4407959,1.0423584,11.1638794z"/>
	<path fill="#2B66B1" d="M11.557312,11.6306763c-1.1893311,0.4749146-2.5299072,0.5649414-3.8562622,0.4393311
		c1.3184814-4.7172852,5.3237305-9.3167725,7.6647949-10.5385742c1.0194702,0.3286133,1.9744263,0.8006592,2.8404541,1.3948975
		C16.5618896,4.0626831,12.177063,7.4588013,11.557312,11.6306763z"/>
	<path fill="#FFCB29" d="M14.0098877,1.192627c-2.7750854,1.9576416-6.1584473,6.4889526-7.3094482,10.7467041
		c-1.0288086-0.1743164-2.0149536-0.4467163-2.8775024-0.7398071c0.7220459-3.8204956,3.6074829-7.9248047,7.1650391-10.1482544
		C11.3217163,1.0206299,11.6583862,1,12,1C12.6871948,1,13.3572388,1.0714722,14.0098877,1.192627z"/>
	<path fill="#2B66B1" d="M8.6630249,1.520874c-2.8812866,2.4348755-5.105957,5.9703369-5.7922363,9.3308105
		c-0.7556763-0.2943726-1.3565674-0.5700684-1.6973267-0.7365723C1.8787842,6.055481,4.8075562,2.7515869,8.6630249,1.520874z"/>
	<path fill="#2B66B1" d="M4.6292114,20.1415405c1.9558716,0.6989746,4.0977783,1.0645142,6.1725464,1.0645142
		c1.6848755,0,3.3127441-0.2521362,4.7662354-0.737915c0.1239014,0.8060303,0.1859741,1.4678955,0.2123413,1.8484497
		C14.5993652,22.7508545,13.3297729,23,12,23C9.163147,23,6.5821533,21.9112549,4.6292114,20.1415405z"/>
	<path opacity="0.1" fill="#010101" d="M4.6292114,20.1415405c1.9558716,0.6989746,4.0977783,1.0645142,6.1725464,1.0645142
		c1.6848755,0,3.3127441-0.2521362,4.7662354-0.737915c0.1239014,0.8060303,0.1859741,1.4678955,0.2123413,1.8484497
		C14.5993652,22.7508545,13.3297729,23,12,23C9.163147,23,6.5821533,21.9112549,4.6292114,20.1415405z"/>
	<path fill="#2B66B1" d="M20.354126,19.1369629c-0.31073-3.3821411-2.5426025-8.5726318-5.6517944-11.6962891
		c0.6617432-0.7994995,1.3865967-1.5141602,2.0686035-2.1126099c2.9481201,2.532959,5.0640869,7.0684204,5.2126465,11.2617188
		C21.5565186,17.5148315,21.0090332,18.371521,20.354126,19.1369629z"/>
	<path opacity="0.1" fill="#010101" d="M20.9656372,9.1801147c0.8355103,1.6154175,1.4564209,3.3850708,1.7771606,5.1633301
		C22.9076538,13.5874023,23,12.8047485,23,12c0-2.666687-0.9651489-5.1044312-2.5501099-7.0100708
		C20.8045654,6.0969849,21,7.2752075,21,8.5C21,8.7296143,20.9788818,8.9538574,20.9656372,9.1801147z"/>
	<path opacity="0.1" fill="#010101" d="M16.0690918,17.9317627c0.4364014,1.6294556,0.6155396,3.1192017,0.6851807,3.9724731
		c0.9631348-0.4642944,1.8465576-1.0628052,2.6293945-1.7744141c0.0418701-1.0892334-0.2738037-2.7062378-0.8918457-4.4724121
		C17.7983398,16.5274048,16.9830933,17.2939453,16.0690918,17.9317627z"/>
	<path opacity="0.1" fill="#010101" d="M2.6513062,17.7226563c0.1286011,0.2097778,0.2421265,0.4296265,0.3844604,0.6298828
		c3.7058105,1.9666748,8.6903076,2.4022827,12.3567505,1.1154785c-0.0615234-0.3088989-0.1464233-0.6396484-0.2281494-0.967041
		C13.491333,19.4507446,11.5612793,20,9.5,20C6.9304199,20,4.5658569,19.1468506,2.6513062,17.7226563z"/>
	<path opacity="0.1" fill="#010101" d="M20.354126,19.1369629c0.6549072-0.7654419,1.2023926-1.6221313,1.6294556-2.5471802
		c-0.0657349-1.8560791-0.5340576-3.7712402-1.2722778-5.5580444c-0.2943726,1.3084106-0.812439,2.5296021-1.5108032,3.6271973
		C19.8274536,16.2717896,20.2348022,17.8380127,20.354126,19.1369629z"/>
	<linearGradient id="SVGID_1_" gradientUnits="userSpaceOnUse" x1="1.1249185" y1="6.9288664" x2="22.875082" y2="17.0711346">
		<stop  offset="0" style="stop-color:#FFFFFF;stop-opacity:0.2"/>
		<stop  offset="1" style="stop-color:#FFFFFF;stop-opacity:0"/>
	</linearGradient>
	<path fill="url(#SVGID_1_)" d="M12,0C5.3833008,0,0,5.3833008,0,12s5.3833008,12,12,12s12-5.3833008,12-12S18.6166992,0,12,0z"/>
</g>
<g>
</g>
<g>
</g>
<g>
</g>
<g>
</g>
<g>
</g>
<g>
</g>
<g>
</g>
<g>
</g>
<g>
</g>
<g>
</g>
<g>
</g>
<g>
</g>
<g>
</g>
<g>
</g>
<g>
</g>
</svg>
